<?xml version="1.0" encoding="UTF-8" standalone="no"?>
<!-- Created with Inkscape (http://www.inkscape.org/) -->

<svg
   xmlns:dc="http://purl.org/dc/elements/1.1/"
   xmlns:cc="http://creativecommons.org/ns#"
   xmlns:rdf="http://www.w3.org/1999/02/22-rdf-syntax-ns#"
   xmlns:svg="http://www.w3.org/2000/svg"
   xmlns="http://www.w3.org/2000/svg"
   xmlns:sodipodi="http://sodipodi.sourceforge.net/DTD/sodipodi-0.dtd"
   xmlns:inkscape="http://www.inkscape.org/namespaces/inkscape"
   width="42.900505mm"
   height="9.8460608mm"
   viewBox="0 0 152.00967 34.887617"
   id="svg2"
   version="1.1"
   inkscape:version="0.91 r13725"
   sodipodi:docname="logo.svg">
  <defs
     id="defs4" />
  <sodipodi:namedview
     id="base"
     pagecolor="#ffffff"
     bordercolor="#666666"
     borderopacity="1.0"
     inkscape:pageopacity="0.0"
     inkscape:pageshadow="2"
     inkscape:zoom="1.979899"
     inkscape:cx="39.802236"
     inkscape:cy="18.517695"
     inkscape:document-units="px"
     inkscape:current-layer="layer1"
     showgrid="false"
     inkscape:window-width="1920"
     inkscape:window-height="1056"
     inkscape:window-x="0"
     inkscape:window-y="24"
     inkscape:window-maximized="1"
     fit-margin-top="0"
     fit-margin-left="0"
     fit-margin-right="0"
     fit-margin-bottom="0" />
  <metadata
     id="metadata7">
    <rdf:RDF>
      <cc:Work
         rdf:about="">
        <dc:format>image/svg+xml</dc:format>
        <dc:type
           rdf:resource="http://purl.org/dc/dcmitype/StillImage" />
        <dc:title></dc:title>
      </cc:Work>
    </rdf:RDF>
  </metadata>
  <g
     inkscape:label="Layer 1"
     inkscape:groupmode="layer"
     id="layer1"
     transform="translate(-218.82783,-448.25601)">
    <g
       style="font-style:normal;font-weight:normal;font-size:40px;line-height:125%;font-family:sans-serif;letter-spacing:0px;word-spacing:0px;fill:#000000;fill-opacity:1;stroke:none;stroke-width:1px;stroke-linecap:butt;stroke-linejoin:miter;stroke-opacity:1"
       id="text3336"
       transform="matrix(0.99939083,-0.0348995,0.0348995,0.99939083,-12.563474,12.235943)">
      <path
         d="m 241.27429,464.49936 c -2.16,3.36 -4.56,5.84 -6.96,7.56 -6.24,4.56 -11.88,4.8 -13.6,2.6 -1.64,-2.08 -1.24,-6 0.72,-10.28 2.24,0.56 5.16,0.56 8.96,-0.32 5.48,-1.32 10.32,-6.04 12.12,-11.28 1.4,-4 -2.28,-6.12 -5.6,-6.24 -5.88,-0.24 -12.64,5.44 -16.08,10.2 -0.68,0.92 -1.36,2.04 -2,3.24 -2.36,-3.4 1.48,-9.08 4.52,-11.68 1.28,-1.12 -3.48,-1.4 -6.12,2.76 -2.08,3.24 -2.48,8.32 0.52,11.28 -1.64,4.08 -2.4,8.64 -0.56,11.4 7.2,10.76 19.32,3.32 24.44,-5.12 1.68,-2.76 0.52,-5.52 -0.36,-4.12 z m -10.52,-11.72 c 2.48,-1.92 9.16,-6.2 8.8,-2.36 -0.32,3.4 -3.84,7 -6.64,8.96 -2.92,2.08 -7.08,3.48 -10.36,2.84 1.92,-3.36 4.72,-6.72 8.2,-9.44 z"
         style="font-style:normal;font-variant:normal;font-weight:normal;font-stretch:normal;font-size:40px;line-height:125%;font-family:Belinda;-inkscape-font-specification:'Belinda, Normal';text-align:start;writing-mode:lr-tb;text-anchor:start"
         id="path3369"
         inkscape:connector-curvature="0" />
      <path
         d="m 253.73804,445.73936 c -2.68,2.72 -12.32,18.04 -14.12,21.52 -0.84,1.68 -0.72,3.72 -0.12,5.28 0.2,0.6 0.52,1.2 1.08,1.76 2.2,2.24 6.36,0.8 10.08,-4.76 1.48,-2.2 -0.4,-4.12 -0.88,-3.4 -2.08,2.96 -6.72,8.36 -8.16,6.72 -1.24,-1.44 2.12,-6.2 3.08,-7.64 0.04,-0.08 0.52,-0.68 1.12,-1.44 5.04,-5.76 9.8,-12.56 10.36,-13.68 0.52,-1 0.68,-2.28 -0.08,-3.36 -0.88,-1.28 -1.92,-1.48 -2.36,-1 z"
         style="font-style:normal;font-variant:normal;font-weight:normal;font-stretch:normal;font-size:40px;line-height:125%;font-family:Belinda;-inkscape-font-specification:'Belinda, Normal';text-align:start;writing-mode:lr-tb;text-anchor:start"
         id="path3371"
         inkscape:connector-curvature="0" />
      <path
         d="m 263.26929,445.73936 c -2.68,2.72 -12.32,18.04 -14.12,21.52 -0.84,1.68 -0.72,3.72 -0.12,5.28 0.2,0.6 0.52,1.2 1.08,1.76 2.2,2.24 6.36,0.8 10.08,-4.76 1.48,-2.2 -0.4,-4.12 -0.88,-3.4 -2.08,2.96 -6.72,8.36 -8.16,6.72 -1.24,-1.44 2.12,-6.2 3.08,-7.64 0.04,-0.08 0.52,-0.68 1.12,-1.44 5.04,-5.76 9.8,-12.56 10.36,-13.68 0.52,-1 0.68,-2.28 -0.08,-3.36 -0.88,-1.28 -1.92,-1.48 -2.36,-1 z"
         style="font-style:normal;font-variant:normal;font-weight:normal;font-stretch:normal;font-size:40px;line-height:125%;font-family:Belinda;-inkscape-font-specification:'Belinda, Normal';text-align:start;writing-mode:lr-tb;text-anchor:start"
         id="path3373"
         inkscape:connector-curvature="0" />
      <path
         d="m 266.80054,461.77936 c 0.44,-0.8 -1.48,-3.56 -2.32,-2.64 -0.16,0.24 -1.88,2.08 -3.4,4.28 -2.52,3.64 -5.24,7 -0.72,11.16 1.72,1.56 5.68,0.48 9.4,-5.12 1.48,-2.2 -0.4,-4.08 -0.88,-3.4 -2.08,2.96 -6.6,7.72 -7.76,6.76 -0.76,-0.68 0.72,-4.04 2.36,-6.36 0.84,-1.16 2.6,-3.44 3.32,-4.68 z m 4.6,-9.8 c -1,-0.6 -2.44,-0.16 -3.2,1.08 -0.8,1.2 -0.68,2.72 0.32,3.32 0.96,0.64 2.4,0.2 3.2,-1.04 0.8,-1.2 0.64,-2.72 -0.32,-3.36 z"
         style="font-style:normal;font-variant:normal;font-weight:normal;font-stretch:normal;font-size:40px;line-height:125%;font-family:Belinda;-inkscape-font-specification:'Belinda, Normal';text-align:start;writing-mode:lr-tb;text-anchor:start"
         id="path3375"
         inkscape:connector-curvature="0" />
      <path
         d="m 285.73367,465.77936 c -2.08,3.32 -3.76,4.36 -4.6,4.04 -0.28,-0.12 -0.48,-0.52 -0.64,-0.96 0.28,-0.52 0.48,-1 0.64,-1.4 1.4,-4.24 1.36,-6.56 -2.92,-9 -1.48,-0.84 -2.84,-0.72 -4.68,0.88 -1.8,1.6 -5.56,5.8 -6,11.08 -0.2,2.68 1.88,3.6 2.56,4.12 0.68,0.56 2.88,1.96 5.96,-0.12 1,-0.64 2.08,-1.88 3,-3.16 2.52,3.04 6.16,0.12 7.6,-2.04 1.56,-2.44 -0.6,-4 -0.92,-3.44 z m -14.48,7.24 c -0.96,-0.72 0.12,-4.48 1.76,-7.08 1.2,-1.96 2.4,-3.24 3.4,-4.04 -0.28,1.64 0.24,3.8 0.8,5.4 -0.2,0.32 -0.36,0.6 -0.52,0.84 -1.32,2 -4.36,5.72 -5.44,4.88 z"
         style="font-style:normal;font-variant:normal;font-weight:normal;font-stretch:normal;font-size:40px;line-height:125%;font-family:Belinda;-inkscape-font-specification:'Belinda, Normal';text-align:start;writing-mode:lr-tb;text-anchor:start"
         id="path3377"
         inkscape:connector-curvature="0" />
      <path
         d="m 296.09054,456.37936 c -0.88,-0.88 -2.56,-1.72 -3.24,-0.88 -1.88,2.24 -7.68,12.08 -11.56,15.84 -0.64,0.64 1.72,0.88 2.28,0.76 0.08,0.16 0.08,0.24 0.24,0.48 1.72,2.84 5.2,4.04 8.24,2.8 2.24,-0.92 1.68,-3.76 1.84,-5.52 0.32,-4.2 -0.6,-7.2 2.76,-11.48 0.52,-0.64 0.08,-1.4 -0.56,-2 z m -8.04,17.24 c -1.28,-0.08 -1.8,-1.84 -2.2,-3.08 1.52,-1.6 3.16,-3.56 4.92,-5.72 -0.08,0.72 -0.12,1.48 -0.2,2.24 -0.24,3.2 -0.64,6.72 -2.52,6.56 z"
         style="font-style:normal;font-variant:normal;font-weight:normal;font-stretch:normal;font-size:40px;line-height:125%;font-family:Belinda;-inkscape-font-specification:'Belinda, Normal';text-align:start;writing-mode:lr-tb;text-anchor:start"
         id="path3379"
         inkscape:connector-curvature="0" />
      <path
         d="m 305.23617,457.21936 c -3.64,1 -8.68,8.32 -8.68,12.56 0,2.36 0.88,3.32 2.44,4.32 4.88,3.24 11.68,-1 14.28,-5.08 1.6,-2.48 -0.48,-4.04 -0.88,-3.44 -4.24,6.24 -9.92,8.6 -12,7.2 -0.76,-0.52 -0.8,-2.32 -0.2,-4.08 0.68,0.64 1.84,1.56 2.88,1.36 2.84,-0.6 5.44,-3.04 6.84,-6.56 1,-2.6 0.88,-3.68 -2.2,-5.88 -0.84,-0.64 -1.84,-0.56 -2.48,-0.4 z m -2.8,7.72 c 2.4,-3.4 4.56,-5.04 4.92,-4.76 0.32,0.24 -0.52,2.44 -2.48,4.76 -1.48,1.76 -3.16,3.2 -3.76,2.88 -0.36,-0.2 0.28,-1.44 1.32,-2.88 z"
         style="font-style:normal;font-variant:normal;font-weight:normal;font-stretch:normal;font-size:40px;line-height:125%;font-family:Belinda;-inkscape-font-specification:'Belinda, Normal';text-align:start;writing-mode:lr-tb;text-anchor:start"
         id="path3381"
         inkscape:connector-curvature="0" />
      <path
         d="m 327.49492,461.09936 c 0.6,-2.04 -1.36,-2.8 -1.88,-2.88 -1.36,-0.16 -2.56,2.52 -3.32,5.24 -3.28,5.28 -7.36,10.52 -9,9.08 -0.76,-0.68 0.88,-3.68 2.56,-6 l 4.16,-5.76 c 0.52,-1 -1.48,-3.6 -2.72,-2.24 -0.64,0.76 -1.64,1.84 -3.76,4.96 -3,4.4 -3.88,8 -1.68,10.24 3.56,3.68 7.32,-0.16 10.16,-3.72 2.48,4.16 6.44,1.16 7.96,-1.16 1.6,-2.44 -0.44,-4.16 -0.8,-3.6 -2.08,3.32 -3.72,4.36 -4.6,4.04 -0.44,-0.16 -0.64,-0.96 -0.76,-1.68 2,-2.96 3.52,-6 3.68,-6.52 z"
         style="font-style:normal;font-variant:normal;font-weight:normal;font-stretch:normal;font-size:40px;line-height:125%;font-family:Belinda;-inkscape-font-specification:'Belinda, Normal';text-align:start;writing-mode:lr-tb;text-anchor:start"
         id="path3383"
         inkscape:connector-curvature="0" />
      <path
         d="m 336.01742,457.21936 c -3.64,1 -8.68,8.32 -8.68,12.56 0,2.36 0.88,3.32 2.44,4.32 4.88,3.24 11.68,-1 14.28,-5.08 1.6,-2.48 -0.48,-4.04 -0.88,-3.44 -4.24,6.24 -9.92,8.6 -12,7.2 -0.76,-0.52 -0.8,-2.32 -0.2,-4.08 0.68,0.64 1.84,1.56 2.88,1.36 2.84,-0.6 5.44,-3.04 6.84,-6.56 1,-2.6 0.88,-3.68 -2.2,-5.88 -0.84,-0.64 -1.84,-0.56 -2.48,-0.4 z m -2.8,7.72 c 2.4,-3.4 4.56,-5.04 4.92,-4.76 0.32,0.24 -0.52,2.44 -2.48,4.76 -1.48,1.76 -3.16,3.2 -3.76,2.88 -0.36,-0.2 0.28,-1.44 1.32,-2.88 z"
         style="font-style:normal;font-variant:normal;font-weight:normal;font-stretch:normal;font-size:40px;line-height:125%;font-family:Belinda;-inkscape-font-specification:'Belinda, Normal';text-align:start;writing-mode:lr-tb;text-anchor:start"
         id="path3385"
         inkscape:connector-curvature="0" />
      <path
         d="m 338.71617,472.93936 c -0.6,1.16 2.36,2.72 3.08,2.16 1.84,-1.52 5.76,-5.12 9.2,-8.56 -0.12,0.2 -0.24,0.4 -0.36,0.6 -0.84,1.56 -1.64,4.04 -1.24,5.48 1.16,3.84 6.84,4.12 11.84,-3.32 1.36,-2.08 -0.36,-4.24 -0.92,-3.4 -3.6,5.24 -7.76,7.84 -8.2,7.44 -0.4,-0.36 0.12,-1.44 0.68,-2.64 1.4,-2.88 4.92,-7.76 6.88,-10.48 1.08,-1.48 -2.32,-3.16 -3.08,-2.24 -2.76,2.96 -7.36,7.64 -11.44,11.56 1.64,-2.72 3.72,-6.28 4.72,-8.28 1,-1.96 -1.52,-4.36 -2.28,-3.24 -0.92,1.36 -8,13.24 -8.88,14.92 z"
         style="font-style:normal;font-variant:normal;font-weight:normal;font-stretch:normal;font-size:40px;line-height:125%;font-family:Belinda;-inkscape-font-specification:'Belinda, Normal';text-align:start;writing-mode:lr-tb;text-anchor:start"
         id="path3387"
         inkscape:connector-curvature="0" />
      <path
         d="m 366.21992,470.21936 c -1.08,-0.72 -2.64,-0.2 -3.52,1.16 -0.88,1.32 -0.72,3 0.36,3.68 1.08,0.68 2.68,0.16 3.52,-1.16 0.88,-1.36 0.72,-3 -0.36,-3.68 z"
         style="font-style:normal;font-variant:normal;font-weight:normal;font-stretch:normal;font-size:40px;line-height:125%;font-family:Belinda;-inkscape-font-specification:'Belinda, Normal';text-align:start;writing-mode:lr-tb;text-anchor:start"
         id="path3389"
         inkscape:connector-curvature="0" />
    </g>
  </g>
</svg>
